<svg width="79" height="73" viewBox="0 0 79 73" fill="none" xmlns="http://www.w3.org/2000/svg">
<path d="M48.1593 5.26368L77.2186 57.2088C78.1547 58.8994 78.6792 60.782 78.6792 62.5878C78.6792 68.4661 74.822 73 68.4557 73H10.4119C4.04579 73 0.188675 68.4661 0.188675 62.5878C0.188675 60.782 0.638049 58.938 1.64913 57.2088L30.7085 5.26368C32.6184 1.76737 35.9887 0 39.434 0C42.879 0 46.2121 1.76737 48.1593 5.26368ZM35.2772 56.0946C35.2772 58.3616 37.2244 60.2056 39.4712 60.2056C41.6807 60.2056 43.6279 58.4002 43.6279 56.0946C43.6279 53.751 41.7183 51.9451 39.4712 51.9451C37.187 51.9451 35.2772 53.7895 35.2772 56.0946ZM35.9138 23.2447L36.4006 44.1457C36.438 46.1821 37.524 47.3345 39.4712 47.3345C41.3064 47.3345 42.3924 46.2203 42.4296 44.1457L42.9914 23.2831C43.0289 21.2468 41.456 19.7484 39.434 19.7484C37.3368 19.7484 35.8763 21.2084 35.9138 23.2447Z" fill="#FF0000" fill-opacity="0.85"/>
</svg>
