<svg version="1.1" id="Layer_1" xmlns="http://www.w3.org/2000/svg" xmlns:xlink="http://www.w3.org/1999/xlink" x="0px" y="0px"
	 width="100%" viewBox="0 0 730 850" enable-background="new 0 0 730 850" xml:space="preserve">
<path fill="#6D129F" opacity="1.000000" stroke="none" 
	d="
M731.000000,677.000000 
	C731.000000,734.992188 731.000000,792.984436 731.000000,850.982422 
	C487.707153,850.988281 244.414307,850.988281 1.060726,850.988281 
	C1.060726,567.745239 1.060726,284.490448 1.060726,1.117824 
	C244.222031,1.117824 487.444153,1.117824 731.000000,1.117824 
	C731.000000,217.026733 731.000000,433.053650 730.760925,649.771851 
	C711.777954,667.464478 689.444153,671.775146 665.345825,667.720764 
	C647.032288,664.639587 625.885498,648.443848 625.951599,618.286316 
	C626.234009,489.460266 626.053223,360.633270 626.093201,231.806610 
	C626.098633,214.144943 626.450134,196.483643 626.543579,178.821655 
	C626.678162,153.393402 628.503723,128.262451 637.857788,104.206779 
	C644.036255,88.317574 650.484375,72.713295 663.011108,60.439793 
	C679.106018,44.670319 697.702271,32.958553 719.027039,25.856779 
	C724.542542,24.019960 726.215088,21.438902 724.106018,14.690602 
	C708.797607,12.749926 692.883118,9.838052 676.850464,8.858300 
	C615.032043,5.080588 563.178467,26.680922 521.817871,72.551300 
	C485.923523,112.359406 468.881744,159.567123 469.022827,213.143326 
	C469.171631,269.640015 469.056183,326.137390 469.056213,382.634460 
	C469.056213,384.708862 469.056183,386.783264 469.056183,388.760223 
	C400.248444,388.760223 332.312805,388.760223 263.860474,388.760223 
	C263.860474,382.850311 263.860474,377.226776 263.860504,371.603210 
	C263.860687,313.272888 263.813507,254.942535 263.882172,196.612320 
	C263.913788,169.734818 284.581451,148.545868 311.166992,147.909439 
	C314.932587,147.819290 318.702179,147.896973 322.447998,147.896973 
	C322.447998,144.866013 322.447998,142.643127 322.447998,140.344162 
	C230.781372,140.344162 139.522568,140.344162 48.027267,140.344162 
	C48.027267,142.863373 48.027267,145.088882 48.027267,147.562866 
	C54.137375,147.832672 60.022438,147.504837 65.697304,148.445328 
	C89.669952,152.418259 106.670410,173.083344 106.672623,197.848618 
	C106.685379,340.341248 106.699799,482.833862 106.642120,625.326477 
	C106.637131,637.652588 106.600540,650.014099 105.703232,662.295227 
	C104.637436,676.882507 104.014038,691.722534 100.734818,705.882324 
	C93.668633,736.394592 79.940155,763.364929 53.871326,782.598206 
	C40.103596,792.755798 25.185860,800.734314 9.317615,806.952881 
	C6.182777,808.181335 5.618430,810.233215 6.266897,812.726379 
	C6.671192,814.280762 8.007704,816.336670 9.379313,816.787231 
	C48.963783,829.791809 89.006477,834.912537 130.268784,824.918579 
	C173.880157,814.355652 207.873688,791.314636 230.533005,751.932617 
	C253.200729,712.535889 263.586945,670.046753 263.788574,624.954163 
	C264.072449,561.458740 263.860474,497.961029 263.860504,434.464294 
	C263.860504,432.351013 263.860504,430.237732 263.860504,427.947021 
	C332.540771,427.947021 400.576080,427.947021 468.864532,427.947021 
	C468.940216,429.457916 469.046417,430.600037 469.047302,431.742249 
	C469.058899,446.908142 469.056122,462.074005 469.056061,477.239899 
	C469.055939,524.570801 469.118988,571.901794 469.029236,619.232483 
	C468.981720,644.295654 450.757965,665.017578 425.963470,668.290039 
	C420.768677,668.975647 415.474670,668.909485 410.366364,669.182312 
	C410.366364,671.817078 410.366364,673.916443 410.366364,676.550964 
	C412.970734,676.550964 415.273010,676.550903 417.575287,676.550903 
	C519.736633,676.550964 621.898010,676.548035 724.059387,676.569763 
	C726.372925,676.570251 728.686462,676.850342 731.000000,677.000000 
z"/>
<path fill="#F3A93B" opacity="1.000000" stroke="none" 
	d="
M731.000000,676.531372 
	C728.686462,676.850342 726.372925,676.570251 724.059387,676.569763 
	C621.898010,676.548035 519.736633,676.550964 417.575287,676.550903 
	C415.273010,676.550903 412.970734,676.550964 410.366364,676.550964 
	C410.366364,673.916443 410.366364,671.817078 410.366364,669.182312 
	C415.474670,668.909485 420.768677,668.975647 425.963470,668.290039 
	C450.757965,665.017578 468.981720,644.295654 469.029236,619.232483 
	C469.118988,571.901794 469.055939,524.570801 469.056061,477.239899 
	C469.056122,462.074005 469.058899,446.908142 469.047302,431.742249 
	C469.046417,430.600037 468.940216,429.457916 468.864532,427.947021 
	C400.576080,427.947021 332.540771,427.947021 263.860504,427.947021 
	C263.860504,430.237732 263.860504,432.351013 263.860504,434.464294 
	C263.860474,497.961029 264.072449,561.458740 263.788574,624.954163 
	C263.586945,670.046753 253.200729,712.535889 230.533005,751.932617 
	C207.873688,791.314636 173.880157,814.355652 130.268784,824.918579 
	C89.006477,834.912537 48.963783,829.791809 9.379313,816.787231 
	C8.007704,816.336670 6.671192,814.280762 6.266897,812.726379 
	C5.618430,810.233215 6.182777,808.181335 9.317615,806.952881 
	C25.185860,800.734314 40.103596,792.755798 53.871326,782.598206 
	C79.940155,763.364929 93.668633,736.394592 100.734818,705.882324 
	C104.014038,691.722534 104.637436,676.882507 105.703232,662.295227 
	C106.600540,650.014099 106.637131,637.652588 106.642120,625.326477 
	C106.699799,482.833862 106.685379,340.341248 106.672623,197.848618 
	C106.670410,173.083344 89.669952,152.418259 65.697304,148.445328 
	C60.022438,147.504837 54.137375,147.832672 48.027267,147.562866 
	C48.027267,145.088882 48.027267,142.863373 48.027267,140.344162 
	C139.522568,140.344162 230.781372,140.344162 322.447998,140.344162 
	C322.447998,142.643127 322.447998,144.866013 322.447998,147.896973 
	C318.702179,147.896973 314.932587,147.819290 311.166992,147.909439 
	C284.581451,148.545868 263.913788,169.734818 263.882172,196.612320 
	C263.813507,254.942535 263.860687,313.272888 263.860504,371.603210 
	C263.860474,377.226776 263.860474,382.850311 263.860474,388.760223 
	C332.312805,388.760223 400.248444,388.760223 469.056183,388.760223 
	C469.056183,386.783264 469.056213,384.708862 469.056213,382.634460 
	C469.056183,326.137390 469.171631,269.640015 469.022827,213.143326 
	C468.881744,159.567123 485.923523,112.359406 521.817871,72.551300 
	C563.178467,26.680922 615.032043,5.080588 676.850464,8.858300 
	C692.883118,9.838052 708.797607,12.749926 724.106018,14.690602 
	C726.215088,21.438902 724.542542,24.019960 719.027039,25.856779 
	C697.702271,32.958553 679.106018,44.670319 663.011108,60.439793 
	C650.484375,72.713295 644.036255,88.317574 637.857788,104.206779 
	C628.503723,128.262451 626.678162,153.393402 626.543579,178.821655 
	C626.450134,196.483643 626.098633,214.144943 626.093201,231.806610 
	C626.053223,360.633270 626.234009,489.460266 625.951599,618.286316 
	C625.885498,648.443848 647.032288,664.639587 665.345825,667.720764 
	C689.444153,671.775146 711.777954,667.464478 730.760925,650.231567 
	C731.000000,658.687561 731.000000,667.375183 731.000000,676.531372 
z"/>
</svg>